<svg xmlns="http://www.w3.org/2000/svg" width="16" height="16" viewBox="0 0 16 16">
  <path id="ic_dns_24px" d="M18.111,11.889H3.889A.892.892,0,0,0,3,12.778v5.333A.892.892,0,0,0,3.889,19H18.111A.892.892,0,0,0,19,18.111V12.778A.892.892,0,0,0,18.111,11.889ZM6.556,17.222a1.778,1.778,0,1,1,1.778-1.778A1.783,1.783,0,0,1,6.556,17.222ZM18.111,3H3.889A.892.892,0,0,0,3,3.889V9.222a.892.892,0,0,0,.889.889H18.111A.892.892,0,0,0,19,9.222V3.889A.892.892,0,0,0,18.111,3ZM6.556,8.333A1.778,1.778,0,1,1,8.333,6.556,1.783,1.783,0,0,1,6.556,8.333Z" transform="translate(-3 -3)"/>
</svg>
