<svg xmlns="http://www.w3.org/2000/svg" width="17.778" height="16" viewBox="0 0 17.778 16">
  <path id="ic_business_center_24px" d="M9.111,14.556v-.889H2.9l-.009,3.556A1.772,1.772,0,0,0,4.667,19H17.111a1.772,1.772,0,0,0,1.778-1.778V13.667H12.667v.889Zm8.889-8H14.436V4.778L12.658,3H9.1L7.324,4.778V6.556H3.778A1.783,1.783,0,0,0,2,8.333V11a1.772,1.772,0,0,0,1.778,1.778H9.111V11h3.556v1.778H18A1.783,1.783,0,0,0,19.778,11V8.333A1.783,1.783,0,0,0,18,6.556Zm-5.333,0H9.111V4.778h3.556Z" transform="translate(-2 -3)"/>
</svg>
