<svg xmlns="http://www.w3.org/2000/svg" width="17.778" height="16" viewBox="0 0 17.778 16">
  <path id="ic_developer_board_24px" d="M19.778,8.333V6.556H18V4.778A1.783,1.783,0,0,0,16.222,3H3.778A1.783,1.783,0,0,0,2,4.778V17.222A1.783,1.783,0,0,0,3.778,19H16.222A1.783,1.783,0,0,0,18,17.222V15.444h1.778V13.667H18V11.889h1.778V10.111H18V8.333Zm-3.556,8.889H3.778V4.778H16.222ZM5.556,11.889H10v3.556H5.556Zm5.333-5.333h3.556V9.222H10.889Zm-5.333,0H10V11H5.556Zm5.333,3.556h3.556v5.333H10.889Z" transform="translate(-2 -3)"/>
</svg>
