<svg xmlns="http://www.w3.org/2000/svg" width="16" height="16" viewBox="0 0 16 16">
  <path id="ic_monetization_on_24px" d="M10,2a8,8,0,1,0,8,8A8,8,0,0,0,10,2Zm1.128,12.872V16.4H8.992V14.856a2.976,2.976,0,0,1-2.616-2.72H7.944c.08.84.656,1.5,2.12,1.5,1.568,0,1.92-.784,1.92-1.272,0-.664-.352-1.288-2.136-1.712C7.864,10.168,6.5,9.352,6.5,7.712A2.773,2.773,0,0,1,8.992,5.144V3.6h2.136V5.16a2.828,2.828,0,0,1,2.28,2.712H11.84c-.04-.888-.512-1.5-1.776-1.5-1.2,0-1.92.544-1.92,1.312,0,.672.52,1.112,2.136,1.528s3.344,1.112,3.344,3.128c-.008,1.464-1.1,2.264-2.5,2.528Z" transform="translate(-2 -2)"/>
</svg>
